<svg id="Layer_1" data-name="Layer 1" xmlns="http://www.w3.org/2000/svg" viewBox="0 0 850.95 251.6"><defs><style>.cls-1{fill:#231f20;}.cls-2{fill:#165f54;}.cls-3{fill:#13737b;}.cls-4{fill:#18aaa7;}.cls-5{fill:#73cbc6;}.cls-6{fill:#aeded7;}.cls-7{fill:#3abdb1;}.cls-8{fill:#fff;}</style></defs><rect class="cls-1" width="850.95" height="251.6" rx="61.65"/><path class="cls-2" d="M302.74,611.62v12.55H222.31c-.19-4.28-.38-8.44-.57-12.59l.51-.52h13.19l26.82.07H289l13.28,0Z" transform="translate(-114.53 -414.2)"/><path class="cls-3" d="M235.16,463.5V450.71h54.13v12.8l-.44.45-53.3,0Z" transform="translate(-114.53 -414.2)"/><path class="cls-2" d="M329.58,517.18h12.56v53.57l-12.59.56-.51-.5.09-53.19Z" transform="translate(-114.53 -414.2)"/><path class="cls-3" d="M195,571.42l-12.86-.66V517.19h12.76l.42.4q0,26.63,0,53.25Z" transform="translate(-114.53 -414.2)"/><path class="cls-3" d="M194.87,517.19V490.36h13.42l.42.39-.12,26.72-13.3.12Z" transform="translate(-114.53 -414.2)"/><path class="cls-2" d="M316.17,490.33h13.41v26.85l-.45.44L316,517.38,315.68,504q0-6.63,0-13.27Z" transform="translate(-114.53 -414.2)"/><path class="cls-2" d="M208.26,598.19,195,597.55V571.42l.28-.58,13.11.19q.18,13.37.37,26.72Z" transform="translate(-114.53 -414.2)"/><path class="cls-2" d="M329.55,571.31v26.23l-13.36.66-.45-.43q0-6.62-.05-13.22l.25-13.36,13.1-.38Z" transform="translate(-114.53 -414.2)"/><path class="cls-3" d="M208.29,490.36V476.94h13.42l.42.4L222,490.63l-13.3.12Z" transform="translate(-114.53 -414.2)"/><path class="cls-2" d="M302.78,477h12.75c.25,5.07.44,9.18.64,13.29l-.45.44-13.19-.28,0,.05q-.18-6.63-.37-13.27Z" transform="translate(-114.53 -414.2)"/><path class="cls-3" d="M221.71,476.94V463.5h13.45l.39.42-.12,13.29-13.3.13Z" transform="translate(-114.53 -414.2)"/><path class="cls-3" d="M289.29,463.51h12.76c.26,4.85.5,9.19.73,13.53l-.58.23-13-.19L288.85,464Z" transform="translate(-114.53 -414.2)"/><path class="cls-2" d="M221.74,611.58H208.93c-.25-5.15-.46-9.27-.67-13.39l.47-.44,13.17.14.35,13.17Z" transform="translate(-114.53 -414.2)"/><path class="cls-2" d="M316.19,598.2c-.21,4.11-.42,8.23-.65,12.79l-12.81.63-.43-.46q.13-6.61.28-13.25l13.16-.14Z" transform="translate(-114.53 -414.2)"/><path class="cls-4" d="M222.25,611.06q-.18-6.59-.35-13.17V571h13.46q.09,13.49.17,27l-.09,13Z" transform="translate(-114.53 -414.2)"/><path class="cls-5" d="M235.44,611.06q0-6.52.08-13l26.81,0q0,6.54-.07,13.08Z" transform="translate(-114.53 -414.2)"/><path class="cls-6" d="M262.26,611.13q0-6.54.07-13.08h26.61l.08,13.08Z" transform="translate(-114.53 -414.2)"/><path class="cls-7" d="M289,611.14l-.08-13.08.24-.25,13.36,0,0,.06-.29,13.25Z" transform="translate(-114.53 -414.2)"/><path class="cls-8" d="M288.85,464l.33,13.12-.15,13.5-.32-.25-13,.2V477.34H262.11l-26.75-.2.07.07.12-13.29Z" transform="translate(-114.53 -414.2)"/><path class="cls-4" d="M329,570.81l-13.1.38V557.64H289q-.11-6.74-.2-13.48.27-13.33.53-26.69l13.1,0v26.2h13.18V517.36l.42,0,13.09.24Z" transform="translate(-114.53 -414.2)"/><path class="cls-8" d="M208.36,571l-13.11-.19q0-26.62,0-53.25l13.3-.12-.07-.08v26.83H222l-.15,13.44h-13.5Z" transform="translate(-114.53 -414.2)"/><path class="cls-8" d="M208.71,490.75l13.3-.12-.07-.07q0,13.45.07,26.91l-13.49-.08.07.08Z" transform="translate(-114.53 -414.2)"/><path class="cls-5" d="M302.44,517.52l-13.1,0c-.23-.07-.47-.12-.71-.17q.09-6.52.16-13l-.08-13.93.32.25,13.54,0,0-.05V504h13.15l.36,13.34-.42,0Z" transform="translate(-114.53 -414.2)"/><path class="cls-7" d="M315.68,504H302.53V490.49l13.19.28Z" transform="translate(-114.53 -414.2)"/><path class="cls-5" d="M208.36,571V557.66h27.11l-.08-.06-.06,13.49,0,0H221.9v26.85l-13.17-.14Q208.54,584.39,208.36,571Z" transform="translate(-114.53 -414.2)"/><path class="cls-7" d="M289,557.64h26.93v13.55q-.12,6.67-.25,13.36l-13.12.1V571.08H289.05l0,0,0-13.47Z" transform="translate(-114.53 -414.2)"/><path class="cls-6" d="M302.57,584.65l13.12-.1q0,6.62.05,13.22l-13.16.14,0-.06Z" transform="translate(-114.53 -414.2)"/><path class="cls-8" d="M222.13,477.34l13.3-.13-.07-.07q0,6.74,0,13.46l-13.46,0,.07.07Z" transform="translate(-114.53 -414.2)"/><path class="cls-7" d="M302.57,490.54l-13.54,0,.15-13.5,13,.19Q302.38,483.9,302.57,490.54Z" transform="translate(-114.53 -414.2)"/><path class="cls-7" d="M288.94,598.06H262.33l-26.81,0q-.08-13.49-.16-27l0,0,53.74,0,0,0q.06,13.36.13,26.73Z" transform="translate(-114.53 -414.2)"/><path class="cls-4" d="M289.18,597.81q-.06-13.37-.13-26.73h13.52v13.57l0,13.2Z" transform="translate(-114.53 -414.2)"/><path class="cls-5" d="M235.4,490.6q0-6.72,0-13.46l26.75.2.24,13.36h0l-27-.13Z" transform="translate(-114.53 -414.2)"/><path class="cls-6" d="M262.35,490.7l-.24-13.36h13.58v13.2l-.09.09Z" transform="translate(-114.53 -414.2)"/><path class="cls-6" d="M288.71,490.33l.09,13.93H275.6V490.63l.09-.09Z" transform="translate(-114.53 -414.2)"/><path class="cls-6" d="M289.34,517.47q-.25,13.35-.53,26.69H275.54v13.36l-40.15.07.08.06q-.1-6.69-.22-13.39h13.08c.4-5.18-.45-9.79-.14-13.72,4.66-.36,9.69.07,14-.27V517.52l26.47-.22C288.87,517.35,289.11,517.4,289.34,517.47Z" transform="translate(-114.53 -414.2)"/><path class="cls-7" d="M302.44,517.52l13.18-.16v26.36H302.44Z" transform="translate(-114.53 -414.2)"/><path class="cls-5" d="M275.54,557.52V544.16h13.27q.1,6.75.2,13.48h0Z" transform="translate(-114.53 -414.2)"/><path class="cls-5" d="M208.52,517.39l13.49.08-.09-.09q0,13.47,0,27l.08-.12H208.52Z" transform="translate(-114.53 -414.2)"/><path class="cls-7" d="M235.25,544.25q.1,6.71.22,13.4H221.86l.15-13.44-.08.12,13.43-.14Z" transform="translate(-114.53 -414.2)"/><path class="cls-5" d="M221.94,490.56l13.46,0,0,0q.07,6.8.14,13.58-.09,6.66-.17,13.32l.09-.09H221.92l.09.09Q222,504,221.94,490.56Z" transform="translate(-114.53 -414.2)"/><path class="cls-8" d="M235.34,517.47q.09-6.66.17-13.32h26.83V490.7h0l13.25-.07v13.63h13.2q-.09,6.53-.17,13l-26.47.22Z" transform="translate(-114.53 -414.2)"/><path class="cls-4" d="M275.54,557.52l13.5.11,0,13.47-53.74,0,.06-13.49Z" transform="translate(-114.53 -414.2)"/><path class="cls-6" d="M262.34,490.7v13.45H235.51q-.06-6.78-.14-13.58Z" transform="translate(-114.53 -414.2)"/><path class="cls-5" d="M235.34,517.47l26.82,0v12.75c-4.28.34-9.31-.09-14,.27-.31,3.93.54,8.54.14,13.72H235.25l.11-.06q0-13.41.07-26.82Z" transform="translate(-114.53 -414.2)"/><path class="cls-8" d="M235.43,517.38q0,13.41-.07,26.82l-13.43.14q0-13.49,0-27Z" transform="translate(-114.53 -414.2)"/><path class="cls-8" d="M383.2,546.91l4.35-23.77h9.06L388.56,561h-9.48L374,539.43,369,561h-9.46l-8.07-37.9h9.09L365,546.91l5.2-23.77h7.76Z" transform="translate(-114.53 -414.2)"/><path class="cls-8" d="M413.4,561.56a14.46,14.46,0,0,1-10.49-3.86,13.33,13.33,0,0,1-4-10.07v-.72a17.26,17.26,0,0,1,1.6-7.63,11.71,11.71,0,0,1,4.67-5.12,14.18,14.18,0,0,1,7.29-1.81,12.21,12.21,0,0,1,9.38,3.69q3.44,3.68,3.43,10.27v3.41H407.83a6.29,6.29,0,0,0,2.06,3.72,6.11,6.11,0,0,0,4.11,1.35,7.89,7.89,0,0,0,6.51-2.91l4,4.74a11.25,11.25,0,0,1-4.65,3.6A15.59,15.59,0,0,1,413.4,561.56Zm-1-22.44q-3.86,0-4.58,5.1h8.85v-.67a4.31,4.31,0,0,0-1.07-3.27A4.24,4.24,0,0,0,412.41,539.12Z" transform="translate(-114.53 -414.2)"/><path class="cls-8" d="M456.83,553.13a2,2,0,0,0-1.17-1.8,17.71,17.71,0,0,0-4.46-1.4,20.43,20.43,0,0,1-5.41-1.92,9.22,9.22,0,0,1-3.26-2.87,6.94,6.94,0,0,1-1.11-3.88,7.79,7.79,0,0,1,3.2-6.4,13.21,13.21,0,0,1,8.38-2.51,14.58,14.58,0,0,1,9,2.53,7.9,7.9,0,0,1,3.38,6.64h-8.8q0-3.39-3.56-3.39a3.53,3.53,0,0,0-2.32.77,2.36,2.36,0,0,0-.94,1.91,2.17,2.17,0,0,0,1.15,1.9,10.63,10.63,0,0,0,3.65,1.2,31.86,31.86,0,0,1,4.42,1.12q6.35,2.19,6.35,7.84a7.37,7.37,0,0,1-3.42,6.27,15,15,0,0,1-8.87,2.42,15.34,15.34,0,0,1-6.46-1.3,10.84,10.84,0,0,1-4.42-3.54,8,8,0,0,1-1.59-4.71h8.2a3.41,3.41,0,0,0,1.3,2.85,5.37,5.37,0,0,0,3.21.9,4.25,4.25,0,0,0,2.69-.73A2.34,2.34,0,0,0,456.83,553.13Z" transform="translate(-114.53 -414.2)"/><path class="cls-8" d="M486.17,558a9,9,0,0,1-7.52,3.56c-3.09,0-5.43-.89-7-2.69s-2.38-4.38-2.38-7.75V532.87H478v18.31q0,3.62,3.52,3.61a4.58,4.58,0,0,0,4.29-2.16V532.87h8.83V561h-8.23Z" transform="translate(-114.53 -414.2)"/><path class="cls-8" d="M525.62,547.17q0,6.55-3,10.48a9.47,9.47,0,0,1-8,3.91,8.12,8.12,0,0,1-6.38-2.83v13.14h-8.77v-39h8.2l.26,2.61a8.11,8.11,0,0,1,6.64-3.13,9.56,9.56,0,0,1,8.1,3.84q2.88,3.84,2.89,10.56Zm-8.78-.55q0-7.5-4.37-7.5-3.12,0-4.17,2.24v11.09a4.27,4.27,0,0,0,4.22,2.34q4.18,0,4.32-7.23Z" transform="translate(-114.53 -414.2)"/><path class="cls-8" d="M555.63,547.17q0,6.55-3,10.48a9.47,9.47,0,0,1-8,3.91,8.12,8.12,0,0,1-6.38-2.83v13.14h-8.77v-39h8.2l.26,2.61a8.11,8.11,0,0,1,6.64-3.13,9.56,9.56,0,0,1,8.1,3.84q2.88,3.84,2.88,10.56Zm-8.77-.55q0-7.5-4.37-7.5c-2.09,0-3.47.75-4.17,2.24v11.09a4.27,4.27,0,0,0,4.22,2.34q4.19,0,4.32-7.23Z" transform="translate(-114.53 -414.2)"/><path class="cls-8" d="M558.4,546.7a16.52,16.52,0,0,1,1.64-7.51,11.68,11.68,0,0,1,4.71-5.07,14.17,14.17,0,0,1,7.21-1.77q6.33,0,10,3.92t3.65,10.66v.31q0,6.6-3.66,10.46T572,561.56a13.15,13.15,0,0,1-9.66-3.6,14.11,14.11,0,0,1-3.93-9.78Zm8.77.54q0,3.91,1.22,5.73a4.07,4.07,0,0,0,3.62,1.82q4.69,0,4.79-7.21v-.88q0-7.58-4.84-7.58-4.4,0-4.77,6.54Z" transform="translate(-114.53 -414.2)"/><path class="cls-8" d="M606.48,540.81l-2.89-.21q-4.14,0-5.31,2.61V561h-8.77V532.87h8.23l.28,3.62c1.48-2.76,3.53-4.14,6.17-4.14a8.85,8.85,0,0,1,2.45.31Z" transform="translate(-114.53 -414.2)"/><path class="cls-8" d="M621.17,525.87v7h4.63V539h-4.63v12.89a3.33,3.33,0,0,0,.57,2.22,3.11,3.11,0,0,0,2.27.62,12.23,12.23,0,0,0,2.18-.16v6.28a16.29,16.29,0,0,1-4.94.75q-4.53,0-6.69-2.13T612.39,553V539H608.8v-6.09h3.59v-7Z" transform="translate(-114.53 -414.2)"/><path class="cls-8" d="M642.93,561v-37.9h12.21a18,18,0,0,1,9,2.27,16.08,16.08,0,0,1,6.26,6.43,19.5,19.5,0,0,1,2.28,9.31v1.75a19.48,19.48,0,0,1-2.2,9.33,16.13,16.13,0,0,1-6.2,6.46,17.49,17.49,0,0,1-8.91,2.35Zm9.14-30.85V554h3.18a7.1,7.1,0,0,0,6-2.8q2.12-2.79,2.11-8.31v-1.64q0-5.5-2.11-8.28a7.24,7.24,0,0,0-6.15-2.79Z" transform="translate(-114.53 -414.2)"/><path class="cls-8" d="M676.94,525.61a3.9,3.9,0,0,1,1.35-3.07,5.75,5.75,0,0,1,7,0,4.17,4.17,0,0,1,0,6.14,5.75,5.75,0,0,1-7,0A3.92,3.92,0,0,1,676.94,525.61ZM686.26,561h-8.8V532.87h8.8Z" transform="translate(-114.53 -414.2)"/><path class="cls-8" d="M707.53,561a9.82,9.82,0,0,1-.83-2.52,8.16,8.16,0,0,1-6.77,3,10,10,0,0,1-6.77-2.4,7.68,7.68,0,0,1-2.79-6.06,7.87,7.87,0,0,1,3.39-6.92q3.38-2.35,9.84-2.35h2.71v-1.49q0-3.9-3.36-3.9-3.13,0-3.13,3.09h-8.77a7.88,7.88,0,0,1,3.47-6.63,14.63,14.63,0,0,1,8.87-2.55q5.39,0,8.51,2.63a9.15,9.15,0,0,1,3.21,7.21v12.47a12.77,12.77,0,0,0,1.19,5.94V561ZM702,555.32a4.89,4.89,0,0,0,2.72-.71,4.49,4.49,0,0,0,1.55-1.59v-4.5h-2.56q-4.57,0-4.58,4.11a2.5,2.5,0,0,0,.81,1.94A2.9,2.9,0,0,0,702,555.32Z" transform="translate(-114.53 -414.2)"/><path class="cls-8" d="M728.25,532.87l.29,3.31a9.7,9.7,0,0,1,8.05-3.83c3.55,0,6,1.42,7.21,4.25a9.38,9.38,0,0,1,8.28-4.25q8.56,0,8.8,10.36V561h-8.8V543.26a5.42,5.42,0,0,0-.73-3.15,3.11,3.11,0,0,0-2.66-1,4.16,4.16,0,0,0-3.88,2.32l0,.36V561H736V543.31a5.72,5.72,0,0,0-.7-3.2,3.11,3.11,0,0,0-2.69-1,4.21,4.21,0,0,0-3.85,2.32V561H720V532.87Z" transform="translate(-114.53 -414.2)"/><path class="cls-8" d="M764.78,546.7a16.66,16.66,0,0,1,1.64-7.51,11.8,11.8,0,0,1,4.71-5.07,14.23,14.23,0,0,1,7.22-1.77q6.31,0,10,3.92T792,546.93v.31q0,6.6-3.65,10.46t-9.91,3.86a13.15,13.15,0,0,1-9.66-3.6,14.11,14.11,0,0,1-3.93-9.78Zm8.78.54c0,2.61.4,4.52,1.22,5.73a4.07,4.07,0,0,0,3.62,1.82q4.68,0,4.79-7.21v-.88q0-7.58-4.84-7.58c-2.94,0-4.52,2.18-4.77,6.54Z" transform="translate(-114.53 -414.2)"/><path class="cls-8" d="M803.89,532.87l.28,3.31a9.58,9.58,0,0,1,8.05-3.83q4.39,0,6.57,2.63t2.26,7.92V561h-8.8V543.26a4.79,4.79,0,0,0-.86-3.14,4,4,0,0,0-3.13-1,4.2,4.2,0,0,0-3.83,2V561h-8.77V532.87Z" transform="translate(-114.53 -414.2)"/><path class="cls-8" d="M824.8,546.75q0-6.69,2.89-10.55a9.51,9.51,0,0,1,8.07-3.85,8.09,8.09,0,0,1,6.35,3V521.05h8.8v40H843l-.44-3a8.32,8.32,0,0,1-6.87,3.54,9.48,9.48,0,0,1-8-3.85Q824.8,553.86,824.8,546.75Zm8.77.55c0,5,1.46,7.49,4.37,7.49a4.31,4.31,0,0,0,4.17-2.44V541.62a4.2,4.2,0,0,0-4.11-2.5q-4.07,0-4.4,6.56Z" transform="translate(-114.53 -414.2)"/><path class="cls-8" d="M870.64,553.13a2,2,0,0,0-1.17-1.8,17.6,17.6,0,0,0-4.45-1.4A20.51,20.51,0,0,1,859.6,548a9.18,9.18,0,0,1-3.25-2.87,6.87,6.87,0,0,1-1.12-3.88,7.81,7.81,0,0,1,3.2-6.4,13.24,13.24,0,0,1,8.39-2.51,14.55,14.55,0,0,1,8.95,2.53,7.88,7.88,0,0,1,3.39,6.64h-8.8q0-3.39-3.57-3.39a3.57,3.57,0,0,0-2.32.77,2.38,2.38,0,0,0-.93,1.91,2.18,2.18,0,0,0,1.14,1.9,10.7,10.7,0,0,0,3.66,1.2,31.33,31.33,0,0,1,4.41,1.12q6.36,2.19,6.36,7.84a7.35,7.35,0,0,1-3.43,6.27,15,15,0,0,1-8.86,2.42,15.27,15.27,0,0,1-6.46-1.3,10.87,10.87,0,0,1-4.43-3.54,8,8,0,0,1-1.58-4.71h8.2a3.39,3.39,0,0,0,1.3,2.85,5.34,5.34,0,0,0,3.2.9,4.26,4.26,0,0,0,2.7-.73A2.36,2.36,0,0,0,870.64,553.13Z" transform="translate(-114.53 -414.2)"/><path class="cls-8" d="M888.64,552.53a5,5,0,0,1,3.46,1.24,4.31,4.31,0,0,1,0,6.32,5.46,5.46,0,0,1-6.94,0,4.31,4.31,0,0,1,0-6.3A5,5,0,0,1,888.64,552.53Z" transform="translate(-114.53 -414.2)"/></svg>